# xmcd
#
# Track frame offsets:
#	150
#	13843
#	27039
#	41478
#	64136
#	78268
#	91715
#	111724
#	124617
#	140273
#	151986
#	172831
#	186960
#	202458
#
# Disc length: 2825 seconds
# Revision: 0
# Processed by: cddbd v1.5.2PL0 Copyright (c) Steve Scherf et al.
# Submitted via: dBpowerAMP V12.0
#
DISCID=b80b070e
DTITLE=Harry Athanass - Funky Stuff
DYEAR=2011
DGENRE=Blues Instrumental
TTITLE0=Cruzin
TTITLE1=Funky Stuff
TTITLE2=That's Love
TTITLE3=In The Moonlight
TTITLE4=Mr. Otis
TTITLE5=Down in New Orleans
TTITLE6=Swampy
TTITLE7=Down Low
TTITLE8=Harry's Shuffle
TTITLE9=Thirds and Sixths
TTITLE10=My Kind of Woman
TTITLE11=Feelin'  Good
TTITLE12=Boogie With me
TTITLE13=Smokin' it up
EXTD=
EXTT0=
EXTT1=
EXTT2=
EXTT3=
EXTT4=
EXTT5=
EXTT6=
EXTT7=
EXTT8=
EXTT9=
EXTT10=
EXTT11=
EXTT12=
EXTT13=
PLAYORDER=
